<svg width="191" height="30" viewBox="0 0 191 30" fill="none" xmlns="http://www.w3.org/2000/svg">
<path d="M44.4602 10.87H47C46.9233 8.07457 44.4517 6.04616 40.9062 6.04616C37.4034 6.04616 34.7188 8.04901 34.7188 11.0575C34.7188 13.4865 36.4574 14.9098 39.2614 15.6683L41.3239 16.2308C43.1903 16.7251 44.6307 17.3388 44.6307 18.8899C44.6307 20.5945 43.0028 21.7195 40.7614 21.7195C38.733 21.7195 37.0455 20.8161 36.892 18.9155H34.25C34.4205 22.0774 36.8665 24.0291 40.7784 24.0291C44.8778 24.0291 47.2386 21.8729 47.2386 18.9155C47.2386 15.7706 44.4347 14.5518 42.2188 14.0064L40.5142 13.5632C39.1506 13.2138 37.3352 12.5746 37.3438 10.9041C37.3438 9.42116 38.6989 8.32173 40.8466 8.32173C42.8494 8.32173 44.2727 9.25923 44.4602 10.87Z" fill="white"/>
<path d="M58.4737 18.3104C58.4822 20.5348 56.8288 21.5916 55.397 21.5916C53.8203 21.5916 52.7294 20.4496 52.7294 18.6683V10.6484H50.1811V18.9751C50.1811 22.2223 51.9624 23.9098 54.4766 23.9098C56.4453 23.9098 57.7834 22.87 58.3885 21.4723H58.5249V23.7393H61.0305V10.6484H58.4737V18.3104Z" fill="white"/>
<path d="M64.4545 28.6484H67.0028V21.7024H67.1562C67.6165 22.5376 68.554 23.995 70.9403 23.995C74.1108 23.995 76.4119 21.4553 76.4119 17.2195C76.4119 12.9751 74.0767 10.478 70.9148 10.478C68.4858 10.478 67.608 11.9609 67.1562 12.7706H66.9432V10.6484H64.4545V28.6484ZM66.9517 17.1939C66.9517 14.4581 68.1449 12.6428 70.3693 12.6428C72.679 12.6428 73.8381 14.5945 73.8381 17.1939C73.8381 19.8189 72.6449 21.8217 70.3693 21.8217C68.179 21.8217 66.9517 19.9467 66.9517 17.1939Z" fill="white"/>
<path d="M84.9091 24.0036C87.7642 24.0036 89.7841 22.5973 90.3636 20.4666L87.9517 20.032C87.4915 21.2678 86.3835 21.8984 84.9347 21.8984C82.7528 21.8984 81.2869 20.4837 81.2188 17.9609H90.5256V17.0575C90.5256 12.3274 87.696 10.478 84.7301 10.478C81.0824 10.478 78.679 13.2564 78.679 17.2791C78.679 21.3445 81.0483 24.0036 84.9091 24.0036ZM81.2273 16.0518C81.3295 14.1939 82.6761 12.5831 84.7472 12.5831C86.7244 12.5831 88.0199 14.049 88.0284 16.0518H81.2273Z" fill="white"/>
<path d="M93.353 23.7393H95.9013V15.745C95.9013 14.032 97.2223 12.7962 99.0291 12.7962C99.5575 12.7962 100.154 12.8899 100.359 12.9496V10.5121C100.103 10.478 99.6001 10.4524 99.2763 10.4524C97.7422 10.4524 96.4297 11.3217 95.9524 12.728H95.8161V10.6484H93.353V23.7393Z" fill="white"/>
<path d="M102.564 28.6484H105.112V21.7024H105.266C105.726 22.5376 106.663 23.995 109.05 23.995C112.22 23.995 114.521 21.4553 114.521 17.2195C114.521 12.9751 112.186 10.478 109.024 10.478C106.595 10.478 105.717 11.9609 105.266 12.7706H105.053V10.6484H102.564V28.6484ZM105.061 17.1939C105.061 14.4581 106.254 12.6428 108.479 12.6428C110.788 12.6428 111.947 14.5945 111.947 17.1939C111.947 19.8189 110.754 21.8217 108.479 21.8217C106.288 21.8217 105.061 19.9467 105.061 17.1939Z" fill="white"/>
<path d="M122.891 24.0036C126.581 24.0036 128.993 21.3018 128.993 17.2536C128.993 13.1797 126.581 10.478 122.891 10.478C119.2 10.478 116.788 13.1797 116.788 17.2536C116.788 21.3018 119.2 24.0036 122.891 24.0036ZM122.899 21.8643C120.487 21.8643 119.362 19.7592 119.362 17.245C119.362 14.7393 120.487 12.6087 122.899 12.6087C125.294 12.6087 126.419 14.7393 126.419 17.245C126.419 19.7592 125.294 21.8643 122.899 21.8643Z" fill="white"/>
<path d="M141.647 13.8445C141.119 11.8075 139.525 10.478 136.695 10.478C133.738 10.478 131.641 12.0376 131.641 14.3558C131.641 16.2138 132.766 17.4496 135.221 17.995L137.437 18.4808C138.698 18.7621 139.286 19.3246 139.286 20.1428C139.286 21.157 138.204 21.9496 136.533 21.9496C135.008 21.9496 134.028 21.2933 133.721 20.0064L131.258 20.3814C131.684 22.6996 133.61 24.0036 136.55 24.0036C139.712 24.0036 141.903 22.3246 141.903 19.9553C141.903 18.1058 140.727 16.9638 138.323 16.4098L136.244 15.9325C134.803 15.5916 134.181 15.1058 134.19 14.2195C134.181 13.2138 135.272 12.4979 136.721 12.4979C138.306 12.4979 139.039 13.3757 139.337 14.2536L141.647 13.8445Z" fill="white"/>
<path d="M144.705 23.7393H147.253V10.6484H144.705V23.7393ZM145.991 8.62855C146.869 8.62855 147.602 7.94673 147.602 7.11151C147.602 6.27628 146.869 5.58594 145.991 5.58594C145.105 5.58594 144.381 6.27628 144.381 7.11151C144.381 7.94673 145.105 8.62855 145.991 8.62855Z" fill="white"/>
<path d="M156.792 10.6484H154.107V7.51207H151.559V10.6484H149.641V12.6939H151.559V20.424C151.55 22.8018 153.366 23.9524 155.377 23.9098C156.187 23.9013 156.732 23.7479 157.031 23.6371L156.57 21.532C156.4 21.5661 156.085 21.6428 155.675 21.6428C154.849 21.6428 154.107 21.37 154.107 19.8956V12.6939H156.792V10.6484Z" fill="white"/>
<path d="M159.611 23.7393H162.159V10.6484H159.611V23.7393ZM160.898 8.62855C161.776 8.62855 162.509 7.94673 162.509 7.11151C162.509 6.27628 161.776 5.58594 160.898 5.58594C160.011 5.58594 159.287 6.27628 159.287 7.11151C159.287 7.94673 160.011 8.62855 160.898 8.62855Z" fill="white"/>
<path d="M171.102 24.0036C174.792 24.0036 177.204 21.3018 177.204 17.2536C177.204 13.1797 174.792 10.478 171.102 10.478C167.411 10.478 164.999 13.1797 164.999 17.2536C164.999 21.3018 167.411 24.0036 171.102 24.0036ZM171.11 21.8643C168.698 21.8643 167.573 19.7592 167.573 17.245C167.573 14.7393 168.698 12.6087 171.11 12.6087C173.505 12.6087 174.63 14.7393 174.63 17.245C174.63 19.7592 173.505 21.8643 171.11 21.8643Z" fill="white"/>
<path d="M182.597 15.9666C182.597 13.8786 183.875 12.6854 185.648 12.6854C187.378 12.6854 188.426 13.8189 188.426 15.7195V23.7393H190.974V15.4126C190.974 12.174 189.193 10.478 186.517 10.478C184.548 10.478 183.261 11.3899 182.656 12.7791H182.494V10.6484H180.048V23.7393H182.597V15.9666Z" fill="white"/>
<path d="M0.0830756 17.5C2.37765 21.0219 6.24509 23.3347 10.6294 23.3347C15.009 23.3347 18.8728 21.0269 21.1683 17.5113C21.2222 17.9648 21.25 18.4267 21.25 18.8954C21.25 25.0283 16.493 30 10.625 30C4.75697 30 -2.56527e-07 25.0283 0 18.8954C1.97914e-08 18.4228 0.028248 17.9571 0.0830756 17.5Z" fill="url(#g0)"/>
<path d="M0.0816784 12.4965C2.37679 8.97599 6.24212 6.66457 10.6237 6.66457C15.0066 6.66457 18.8731 8.97753 21.1679 12.5C21.2221 12.0453 21.25 11.582 21.25 11.1119C21.25 4.97498 16.493 0 10.625 0C4.75697 0 0 4.97498 0 11.1119C0 11.5808 0.0277681 12.0429 0.0816784 12.4965Z" fill="url(#g1)"/>
<path d="M0.65625 14.9732C2.32183 18.7919 6.13072 21.4613 10.563 21.4613C14.9896 21.4613 18.7944 18.7989 20.4634 14.9881C18.7978 11.1693 14.9889 8.5 10.5566 8.5C6.12997 8.5 2.32522 11.1624 0.65625 14.9732Z" fill="url(#g2)"/>
<defs>
<linearGradient id="g0" x1="1.50136" y1="19.7518" x2="20.0767" y2="20.2698" gradientUnits="userSpaceOnUse">
<stop stop-color="#EFA2DE"/>
<stop offset="1" stop-color="#7E3BF5"/>
</linearGradient>
<linearGradient id="g1" x1="1.50136" y1="2.25184" x2="20.0767" y2="2.76985" gradientUnits="userSpaceOnUse">
<stop stop-color="#EFA2DE"/>
<stop offset="1" stop-color="#7E3BF5"/>
</linearGradient>
<linearGradient id="g2" x1="4.20911" y1="9.00754" x2="13.0135" y2="19.3015" gradientUnits="userSpaceOnUse">
<stop stop-color="#EFA2DE"/>
<stop offset="1" stop-color="#7E3BF5"/>
</linearGradient>
</defs>
</svg>
